<?xml version="1.0" standalone="no"?>
<!DOCTYPE svg PUBLIC "-//W3C//DTD SVG 20010904//EN"
 "http://www.w3.org/TR/2001/REC-SVG-20010904/DTD/svg10.dtd">
<svg version="1.0" xmlns="http://www.w3.org/2000/svg"
 width="1280.000000pt" height="1280.000000pt" viewBox="0 0 1280.000000 1280.000000"
 preserveAspectRatio="xMidYMid meet">

<g transform="translate(0.000000,1280.000000) scale(0.100000,-0.100000)"
fill="#000000" stroke="none">
<path d="M10263 8842 c-19 -42 -54 -123 -78 -181 -24 -59 -69 -164 -99 -235
-31 -71 -56 -131 -56 -132 0 -2 30 -4 68 -4 l67 0 28 70 29 70 132 0 133 0 28
-70 28 -70 69 0 c37 0 68 2 68 4 0 7 -238 568 -253 596 -11 22 -20 25 -71 26
l-58 1 -35 -75z m138 -200 l38 -92 -85 0 -84 0 22 53 c11 28 28 71 37 95 9 23
20 41 25 39 6 -2 27 -45 47 -95z"/>
<path d="M9290 8600 l0 -312 198 4 c188 3 199 4 242 28 93 52 116 172 47 242
-18 18 -41 38 -52 45 -20 11 -20 12 3 28 55 40 69 136 29 195 -45 68 -70 75
-279 78 l-188 4 0 -312z m338 174 c13 -9 22 -25 22 -42 0 -56 -33 -72 -144
-72 l-86 0 0 65 0 65 93 0 c68 0 99 -4 115 -16z m9 -235 c34 -13 43 -25 43
-66 0 -52 -27 -63 -152 -63 l-108 0 0 70 0 70 94 0 c52 0 107 -5 123 -11z"/>
<path d="M10930 8600 l0 -310 65 0 65 0 0 198 1 197 27 -31 c15 -17 83 -105
152 -197 l125 -167 58 0 57 0 0 310 0 310 -65 0 -65 0 -2 -192 -3 -191 -145
191 -145 192 -62 0 -63 0 0 -310z"/>
<path d="M11780 8600 l0 -310 68 0 67 0 -3 92 -2 93 35 38 c19 20 39 37 43 37
4 -1 47 -57 96 -126 49 -69 95 -128 101 -130 7 -3 44 -4 83 -2 l72 3 -48 62
c-73 98 -196 265 -205 280 -6 9 29 51 115 141 l123 127 -78 3 -78 3 -72 -78
c-40 -43 -98 -105 -130 -138 l-57 -60 2 138 3 137 -67 0 -68 0 0 -310z"/>
<path d="M10626 7819 c-614 -84 -1114 -409 -1350 -878 -44 -87 -89 -218 -110
-323 -21 -101 -21 -329 -1 -437 80 -418 376 -784 812 -1005 634 -320 1419
-277 2003 111 216 144 424 379 520 588 88 193 115 318 114 535 -1 150 -4 175
-31 280 -149 567 -661 988 -1358 1116 -106 19 -491 28 -599 13z m391 -670
c450 -50 789 -352 810 -719 11 -191 -56 -353 -209 -508 -191 -193 -466 -291
-783 -279 -404 16 -735 221 -856 531 -28 70 -33 97 -37 196 -5 135 9 203 64
313 124 247 400 423 730 466 99 12 172 12 281 0z"/>
<path d="M1188 7613 c-100 -214 -201 -430 -258 -553 -32 -69 -83 -178 -114
-243 -31 -65 -56 -120 -56 -121 0 -2 -29 -64 -64 -137 -35 -74 -158 -336 -274
-584 -115 -247 -233 -499 -262 -560 -69 -145 -150 -324 -150 -330 0 -3 166 -5
368 -5 l369 0 119 255 119 255 710 -2 709 -3 117 -250 116 -250 372 -3 c204
-1 371 -1 371 1 0 2 -41 91 -91 198 -50 107 -115 246 -144 309 -29 63 -75 162
-103 220 -101 213 -436 929 -673 1437 -59 128 -134 287 -165 353 l-57 120
-454 0 -454 0 -51 -107z m669 -858 c85 -182 178 -383 208 -447 l54 -118 -425
0 c-265 0 -424 4 -422 10 20 59 415 889 422 887 5 -2 78 -151 163 -332z"/>
<path d="M3660 6400 l0 -1320 393 2 392 3 0 938 c0 515 3 937 6 937 6 0 18
-23 119 -240 259 -555 412 -882 616 -1314 l150 -321 340 -3 341 -2 38 82 c21
46 75 162 120 258 105 224 250 532 510 1090 114 245 212 449 216 455 5 5 9
-414 9 -938 l0 -947 395 0 395 0 0 1320 0 1320 -595 0 -596 0 -51 -107 c-129
-275 -449 -959 -525 -1123 -155 -334 -246 -526 -252 -533 -4 -4 -26 32 -48 80
-38 80 -356 763 -457 978 -23 50 -107 228 -186 398 l-144 307 -593 0 -593 0 0
-1320z"/>
<path d="M8085 6400 l0 -1320 397 0 398 0 0 1320 0 1320 -398 0 -397 0 0
-1320z"/>
</g>
</svg>
